<svg width="24" height="24" viewBox="0 0 24 24" fill="none" xmlns="http://www.w3.org/2000/svg">
<path d="M22.0009 12.7185C22.0009 12.0727 21.9475 11.4234 21.8335 10.7881H12.6914V14.4464H17.9266C17.7094 15.6262 17.0114 16.67 15.9893 17.3332V19.7069H19.1126C20.9467 18.0523 22.0009 15.6088 22.0009 12.7185Z" fill="#4285F4"/>
<path d="M12.6925 22.0009C15.3066 22.0009 17.5111 21.1596 19.1173 19.7075L15.9939 17.3338C15.125 17.9132 14.0031 18.2414 12.6961 18.2414C10.1675 18.2414 8.02356 16.5693 7.25431 14.3213H4.03125V16.7683C5.67661 19.9763 9.02788 22.0009 12.6925 22.0009Z" fill="#34A853"/>
<path d="M7.25052 14.3207C6.84452 13.1408 6.84452 11.8632 7.25052 10.6833V8.23633H4.03102C2.65633 10.9207 2.65633 14.0833 4.03102 16.7677L7.25052 14.3207Z" fill="#FBBC04"/>
<path d="M12.6925 6.76015C14.0744 6.7392 15.4099 7.24885 16.4106 8.18436L19.1778 5.47207C17.4256 3.85936 15.1 2.97271 12.6925 3.00064C9.02787 3.00064 5.67661 5.02526 4.03125 8.23672L7.25074 10.6837C8.01644 8.4322 10.164 6.76015 12.6925 6.76015Z" fill="#EA4335"/>
</svg>
