<svg width="53" height="47" viewBox="0 0 53 47" fill="none" xmlns="http://www.w3.org/2000/svg">
<mask id="mask0" style="mask-type:alpha" maskUnits="userSpaceOnUse" x="0" y="0" width="53" height="47">
<rect opacity="0.8" width="53" height="47" fill="#C4C4C4"/>
</mask>
<g mask="url(#mask0)">
<path fill-rule="evenodd" clip-rule="evenodd" d="M79.1188 -52.7597L66.2395 -60.1955L53.3603 -52.7597V-37.888L66.2395 -30.4521L79.1188 -37.888V-52.7597ZM66.2395 -61L52.6636 -53.1619V-37.813L39.7642 -30.3655L26.5266 -38.0083L12.9506 -30.1702V-14.8212L0.0512543 -7.37378L-13.1864 -15.0165L-26.7624 -7.17846V8.17049L-40 15.8133V31.4894L-26.7624 39.1322V54.1539L-40 61.7967V77.4729L-26.4241 85.311L-13.1915 77.6712L0.0410385 85.311L13.617 77.4729V62.1298L26.5215 54.6794L39.754 62.3192L53.33 54.4812V39.1322L66.2242 31.6877L79.4568 39.3275L93.0328 31.4894V15.8133L79.8053 8.17638V-6.85124L93.043 -14.494V-30.1702L79.8155 -37.8071V-53.1619L66.2395 -61ZM92.3462 -29.7679L79.467 -37.2038L66.5878 -29.7679V-14.8963L79.467 -7.46042L92.3462 -14.8963V-29.7679ZM39.754 -14.212L52.6333 -6.77621V8.09547L39.754 15.5313L26.8748 8.09547V-6.77621L39.754 -14.212ZM92.336 16.2155L79.4568 8.77968L66.5775 16.2155V31.0872L79.4568 38.523L92.336 31.0872V16.2155ZM52.6333 39.2072L39.754 31.7714L26.8748 39.2072V54.0789L39.754 61.5147L52.6333 54.0789V39.2072ZM12.9203 16.2155L0.0410385 8.77968L-12.8382 16.2155V31.0872L0.0410385 38.523L12.9203 31.0872V16.2155ZM0.0410385 54.7631L12.9203 62.199V77.0706L0.0410385 84.5065L-12.8382 77.0706V62.199L0.0410385 54.7631ZM66.2293 -14.212L79.1086 -6.77621V8.09547L66.2293 15.5313L53.3501 8.09547V-6.77621L66.2293 -14.212ZM39.4058 16.2155L26.5266 8.77968L13.6473 16.2155V31.0872L26.5266 38.523L39.4058 31.0872V16.2155ZM26.5266 -37.2038L39.4058 -29.7679V-14.8963L26.5266 -7.46042L13.6473 -14.8963V-29.7679L26.5266 -37.2038ZM-0.307159 -6.77621L-13.1864 -14.212L-26.0657 -6.77621V8.09547L-13.1864 15.5313L-0.307159 8.09547V-6.77621ZM-13.1864 31.7714L-0.307159 39.2072V54.0789L-13.1864 61.5147L-26.0657 54.0789V39.2072L-13.1864 31.7714ZM52.9917 8.77968L65.8709 16.2155V31.0872L52.9917 38.523L40.1124 31.0872V16.2155L52.9917 8.77968ZM26.1682 39.2072L13.2889 31.7714L0.40966 39.2072V54.0789L13.2889 61.5147L26.1682 54.0789V39.2072ZM13.2889 -14.212L26.1682 -6.77621V8.09547L13.2889 15.5313L0.40966 8.09547V-6.77621L13.2889 -14.212ZM-13.5448 16.2155L-26.4241 8.77968L-39.3033 16.2155V31.0872L-26.4241 38.523L-13.5448 31.0872V16.2155ZM-26.4241 54.7631L-13.5448 62.199V77.0706L-26.4241 84.5065L-39.3033 77.0706V62.199L-26.4241 54.7631ZM65.8811 -29.7679L53.0019 -37.2038L40.1226 -29.7679V-14.8963L53.0019 -7.46042L65.8811 -14.8963V-29.7679Z" fill="#F1F6FF"/>
</g>
</svg>
