<svg width="180" height="127" viewBox="0 0 180 127" fill="none" xmlns="http://www.w3.org/2000/svg">
<path d="M87.0443 38.6205C89.4576 39.1954 91.978 39.1954 94.3914 38.6205C95.0652 35.9523 96.4774 33.5146 98.4745 31.5718C100.472 29.629 102.977 28.2553 105.72 27.5997C106.276 25.3881 106.308 23.0825 105.814 20.8571C105.319 18.6317 104.311 16.5447 102.866 14.7537C101.421 12.9628 99.5766 11.5148 97.4719 10.519C95.3672 9.52328 93.0574 9.00586 90.717 9.00586C88.3765 9.00586 86.0667 9.52328 83.962 10.519C81.8573 11.5148 80.0127 12.9628 78.5676 14.7537C77.1225 16.5447 76.1147 18.6317 75.6203 20.8571C75.1259 23.0825 75.1578 25.3881 75.7137 27.5997C78.4568 28.255 80.963 29.6286 82.9604 31.5714C84.9579 33.5143 86.3702 35.9521 87.0443 38.6205Z" fill="#7ABDF7"/>
<path d="M94.3897 46.7353C91.9763 46.1604 89.4559 46.1604 87.0426 46.7353C86.3682 49.4033 84.9559 51.8407 82.9588 53.7835C80.9618 55.7262 78.4562 57.1001 75.7137 57.7562C75.1578 59.9678 75.1259 62.2734 75.6203 64.4988C76.1147 66.7242 77.1225 68.8112 78.5676 70.6021C80.0127 72.393 81.8573 73.8411 83.962 74.8368C86.0667 75.8326 88.3765 76.35 90.717 76.35C93.0574 76.35 95.3672 75.8326 97.4719 74.8368C99.5766 73.8411 101.421 72.393 102.866 70.6021C104.311 68.8112 105.319 66.7242 105.814 64.4988C106.308 62.2734 106.276 59.9678 105.72 57.7562C102.977 57.1009 100.471 55.7273 98.4735 53.7844C96.476 51.8416 95.0637 49.4037 94.3897 46.7353Z" fill="#0D74F5"/>
<path d="M108.738 27.6583C107.542 27.6582 106.35 27.8028 105.188 28.089C104.536 30.7565 103.171 33.1935 101.24 35.1358C99.3093 37.078 96.8865 38.4513 94.2346 39.1065C93.6632 41.4539 93.6632 43.9053 94.2346 46.2527C96.8865 46.9084 99.3093 48.2821 101.24 50.2245C103.171 52.167 104.536 54.6043 105.188 57.2718C107.239 57.7758 109.373 57.8366 111.45 57.45C113.526 57.0634 115.498 56.2383 117.234 55.0291C118.97 53.82 120.431 52.2542 121.522 50.4352C122.612 48.6162 123.307 46.5853 123.559 44.4765C123.812 42.3677 123.618 40.229 122.988 38.2014C122.359 36.1738 121.31 34.3035 119.909 32.7138C118.508 31.1242 116.789 29.8514 114.863 28.9794C112.937 28.1074 110.85 27.656 108.738 27.655V27.6583Z" fill="#4494F7"/>
<path d="M87.1846 46.2486C87.7757 43.9012 87.7757 41.4498 87.1846 39.1024C84.4416 38.447 81.9355 37.0738 79.9381 35.1316C77.9407 33.1894 76.5283 30.7524 75.854 28.0849C73.5802 27.5442 71.2098 27.5132 68.9218 27.9941C66.6339 28.4749 64.4882 29.4552 62.6469 30.8608C60.8056 32.2664 59.3169 34.0605 58.2932 36.1077C57.2694 38.1549 56.7375 40.4015 56.7375 42.678C56.7375 44.9544 57.2694 47.201 58.2932 49.2482C59.3169 51.2954 60.8056 53.0895 62.6469 54.4951C64.4882 55.9007 66.6339 56.881 68.9218 57.3619C71.2098 57.8427 73.5802 57.8117 75.854 57.271C76.5276 54.6027 77.9397 52.1647 79.9372 50.2216C81.9346 48.2785 84.4411 46.9045 87.1846 46.2486Z" fill="#005CF4"/>
<path d="M93.806 39.0517C96.548 38.3733 99.053 36.9526 101.05 34.9436C103.046 32.9346 104.458 30.414 105.133 27.655C102.39 28.333 99.885 29.7535 97.8883 31.7626C95.8916 33.7717 94.4798 36.2925 93.806 39.0517Z" fill="#186EF9"/>
<path d="M93.806 46.3041C94.4798 49.0633 95.8916 51.5842 97.8883 53.5933C99.885 55.6024 102.39 57.0229 105.133 57.7008C104.458 54.9419 103.046 52.4213 101.05 50.4123C99.053 48.4033 96.548 46.9826 93.806 46.3041Z" fill="#0246F2"/>
<path d="M87.6279 39.0517C86.9537 36.2928 85.5417 33.7722 83.5451 31.7632C81.5485 29.7542 79.0434 28.3335 76.3014 27.655C76.9757 30.414 78.3877 32.9346 80.3843 34.9436C82.3809 36.9526 84.886 38.3733 87.6279 39.0517Z" fill="#0046F8"/>
<path d="M87.6279 46.3041C84.886 46.9826 82.3809 48.4033 80.3843 50.4123C78.3877 52.4213 76.9757 54.9419 76.3014 57.7008C79.0434 57.0224 81.5485 55.6017 83.5451 53.5927C85.5417 51.5837 86.9537 49.0631 87.6279 46.3041Z" fill="#0729F1"/>
<path d="M71.7825 103.954C71.7937 105.543 71.5292 107.122 71.0009 108.62C70.5052 110.032 69.7377 111.333 68.7422 112.447C67.724 113.563 66.481 114.448 65.096 115.043C61.9163 116.327 58.3671 116.327 55.1874 115.043C53.7975 114.443 52.5489 113.556 51.5228 112.438C50.5191 111.331 49.7505 110.029 49.2641 108.612C48.2453 105.591 48.2453 102.317 49.2641 99.2962C49.7472 97.8718 50.516 96.5625 51.5228 95.4494C52.55 94.3351 53.7986 93.4504 55.1874 92.8527C58.3635 91.5704 61.9088 91.5704 65.085 92.8527C66.471 93.4498 67.7145 94.3376 68.7323 95.4568C69.7348 96.5762 70.506 97.8851 71.0009 99.3073C71.5255 100.799 71.7899 102.371 71.7825 103.954ZM60.1472 112.168C61.1711 112.196 62.1873 111.984 63.1163 111.55C63.9446 111.143 64.6693 110.551 65.2349 109.819C65.8258 109.043 66.2585 108.157 66.508 107.212C67.0647 105.082 67.0647 102.843 66.508 100.712C66.2594 99.7682 65.8285 98.8829 65.2398 98.1067C64.6742 97.3745 63.9495 96.7823 63.1212 96.3756C62.1853 95.9603 61.1737 95.7458 60.1509 95.7458C59.1281 95.7458 58.1165 95.9603 57.1807 96.3756C56.3524 96.7823 55.6277 97.3745 55.0621 98.1067C54.4734 98.8829 54.0424 99.7682 53.7938 100.712C53.2372 102.843 53.2372 105.082 53.7938 107.212C54.0447 108.15 54.476 109.029 55.0633 109.799C55.6284 110.532 56.3538 111.125 57.1831 111.53C58.1106 111.97 59.1269 112.188 60.1522 112.166L60.1472 112.168ZM74.8387 115.592V92.3185H79.7015V103.502L87.725 92.3185H93.3521L84.842 103.818L93.9432 115.596H87.9339L79.7003 104.168V115.596L74.8387 115.592ZM95.8529 92.3185H109.753V96.1975H100.717V101.824H109.332V105.703H100.717V111.715H109.853V115.592H95.8542L95.8529 92.3185ZM127.067 92.3185H132.351L124.749 103.886L132.5 115.592H127.186L122.192 107.659L117.196 115.592H111.868L119.61 103.885L112.014 92.3161H117.299L122.196 100.183L127.067 92.3185Z" fill="#36415C"/>
<path d="M87.0443 38.6205C89.4576 39.1954 91.978 39.1954 94.3914 38.6205C95.0652 35.9523 96.4774 33.5146 98.4745 31.5718C100.472 29.629 102.977 28.2553 105.72 27.5997C106.276 25.3881 106.308 23.0825 105.814 20.8571C105.319 18.6317 104.311 16.5447 102.866 14.7537C101.421 12.9628 99.5766 11.5148 97.4719 10.519C95.3672 9.52328 93.0574 9.00586 90.717 9.00586C88.3765 9.00586 86.0667 9.52328 83.962 10.519C81.8573 11.5148 80.0127 12.9628 78.5676 14.7537C77.1225 16.5447 76.1147 18.6317 75.6203 20.8571C75.1259 23.0825 75.1578 25.3881 75.7137 27.5997C78.4568 28.255 80.963 29.6286 82.9604 31.5714C84.9579 33.5143 86.3702 35.9521 87.0443 38.6205Z" fill="#7ABDF7"/>
<path d="M94.3897 46.7353C91.9763 46.1604 89.4559 46.1604 87.0426 46.7353C86.3682 49.4033 84.9559 51.8407 82.9588 53.7835C80.9618 55.7262 78.4562 57.1001 75.7137 57.7562C75.1578 59.9678 75.1259 62.2734 75.6203 64.4988C76.1147 66.7242 77.1225 68.8112 78.5676 70.6021C80.0127 72.393 81.8573 73.8411 83.962 74.8368C86.0667 75.8326 88.3765 76.35 90.717 76.35C93.0574 76.35 95.3672 75.8326 97.4719 74.8368C99.5766 73.8411 101.421 72.393 102.866 70.6021C104.311 68.8112 105.319 66.7242 105.814 64.4988C106.308 62.2734 106.276 59.9678 105.72 57.7562C102.977 57.1009 100.471 55.7273 98.4735 53.7844C96.476 51.8416 95.0637 49.4037 94.3897 46.7353Z" fill="#0D74F5"/>
<path d="M108.738 27.6583C107.542 27.6582 106.35 27.8028 105.188 28.089C104.536 30.7565 103.171 33.1935 101.24 35.1358C99.3093 37.078 96.8865 38.4513 94.2346 39.1065C93.6632 41.4539 93.6632 43.9053 94.2346 46.2527C96.8865 46.9084 99.3093 48.2821 101.24 50.2245C103.171 52.167 104.536 54.6043 105.188 57.2718C107.239 57.7758 109.373 57.8366 111.45 57.45C113.526 57.0634 115.498 56.2383 117.234 55.0291C118.97 53.82 120.431 52.2542 121.522 50.4352C122.612 48.6162 123.307 46.5853 123.559 44.4765C123.812 42.3677 123.618 40.229 122.988 38.2014C122.359 36.1738 121.31 34.3035 119.909 32.7138C118.508 31.1242 116.789 29.8514 114.863 28.9794C112.937 28.1074 110.85 27.656 108.738 27.655V27.6583Z" fill="#4494F7"/>
<path d="M87.1846 46.2486C87.7757 43.9012 87.7757 41.4498 87.1846 39.1024C84.4416 38.447 81.9355 37.0738 79.9381 35.1316C77.9407 33.1894 76.5283 30.7524 75.854 28.0849C73.5802 27.5442 71.2098 27.5132 68.9218 27.9941C66.6339 28.4749 64.4882 29.4552 62.6469 30.8608C60.8056 32.2664 59.3169 34.0605 58.2932 36.1077C57.2694 38.1549 56.7375 40.4015 56.7375 42.678C56.7375 44.9544 57.2694 47.201 58.2932 49.2482C59.3169 51.2954 60.8056 53.0895 62.6469 54.4951C64.4882 55.9007 66.6339 56.881 68.9218 57.3619C71.2098 57.8427 73.5802 57.8117 75.854 57.271C76.5276 54.6027 77.9397 52.1647 79.9372 50.2216C81.9346 48.2785 84.4411 46.9045 87.1846 46.2486Z" fill="#005CF4"/>
<path d="M93.806 39.0517C96.548 38.3733 99.053 36.9526 101.05 34.9436C103.046 32.9346 104.458 30.414 105.133 27.655C102.39 28.333 99.885 29.7535 97.8883 31.7626C95.8916 33.7717 94.4798 36.2925 93.806 39.0517Z" fill="#186EF9"/>
<path d="M93.806 46.3041C94.4798 49.0633 95.8916 51.5842 97.8883 53.5933C99.885 55.6024 102.39 57.0229 105.133 57.7008C104.458 54.9419 103.046 52.4213 101.05 50.4123C99.053 48.4033 96.548 46.9826 93.806 46.3041Z" fill="#0246F2"/>
<path d="M87.6279 39.0517C86.9537 36.2928 85.5417 33.7722 83.5451 31.7632C81.5485 29.7542 79.0434 28.3335 76.3014 27.655C76.9757 30.414 78.3877 32.9346 80.3843 34.9436C82.3809 36.9526 84.886 38.3733 87.6279 39.0517Z" fill="#0046F8"/>
<path d="M87.6279 46.3041C84.886 46.9826 82.3809 48.4033 80.3843 50.4123C78.3877 52.4213 76.9757 54.9419 76.3014 57.7008C79.0434 57.0224 81.5485 55.6017 83.5451 53.5927C85.5417 51.5837 86.9537 49.0631 87.6279 46.3041Z" fill="#0729F1"/>
</svg>
